<svg width="224" height="190" viewBox="0 0 224 190" fill="none" xmlns="http://www.w3.org/2000/svg">
<path d="M201.866 132.63C203.788 132.49 205.717 132.49 207.639 132.63H201.866Z" fill="white"/>
<path d="M207.64 133.057H207.61C205.708 132.917 203.798 132.917 201.896 133.057C201.784 133.062 201.675 133.023 201.59 132.95C201.506 132.877 201.452 132.774 201.44 132.663C201.433 132.55 201.47 132.439 201.544 132.353C201.618 132.268 201.723 132.215 201.836 132.207C203.777 132.064 205.725 132.064 207.666 132.207C207.771 132.221 207.867 132.274 207.935 132.355C208.004 132.436 208.039 132.54 208.036 132.645C208.032 132.751 207.99 132.852 207.916 132.929C207.843 133.005 207.744 133.051 207.638 133.059L207.64 133.057Z" fill="black"/>
<path d="M61.8613 132.63H193.418C149.539 132.526 105.696 132.5 61.8888 132.55C61.882 132.578 61.8728 132.604 61.8613 132.63Z" fill="white"/>
<path d="M193.419 133.058H61.8616C61.7907 133.057 61.7211 133.039 61.659 133.005C61.5968 132.971 61.5441 132.922 61.5055 132.863C61.467 132.803 61.4438 132.735 61.438 132.664C61.4322 132.594 61.444 132.523 61.4723 132.458C61.5039 132.369 61.5596 132.292 61.6331 132.233C61.7066 132.175 61.7949 132.138 61.8882 132.127C105.576 132.075 149.828 132.103 193.418 132.207C193.532 132.207 193.641 132.252 193.721 132.332C193.801 132.413 193.847 132.522 193.847 132.635C193.847 132.749 193.801 132.858 193.721 132.938C193.641 133.019 193.532 133.064 193.418 133.064L193.419 133.058Z" fill="black"/>
<path d="M47.2653 143.884H178.822C134.944 143.779 79.436 143.754 35.6162 143.804C35.6085 143.832 47.2773 143.858 47.2653 143.884Z" fill="white"/>
<path d="M178.822 144.31H47.2652C47.2492 144.311 47.2332 144.311 47.2172 144.31C46.9454 144.299 44.0962 144.286 41.5771 144.274C38.7227 144.261 37.1896 144.254 36.3536 144.232H35.6162V144.194C35.353 144.166 35.3221 144.125 35.2732 144.063C35.2255 143.999 35.1964 143.924 35.1892 143.844C35.1821 143.765 35.1972 143.685 35.2328 143.614C35.2684 143.543 35.3231 143.483 35.3908 143.441C35.4585 143.399 35.5366 143.377 35.6162 143.377C81.066 143.324 135.935 143.355 178.825 143.457C178.939 143.457 179.048 143.502 179.128 143.583C179.208 143.663 179.254 143.772 179.254 143.886C179.254 143.999 179.208 144.108 179.128 144.189C179.048 144.269 178.939 144.314 178.825 144.314L178.822 144.31Z" fill="black"/>
<path d="M41.9227 132.586C33.4244 132.6 24.9264 132.615 16.4287 132.631H41.9372C41.9315 132.617 41.9266 132.601 41.9227 132.586Z" fill="white"/>
<path d="M41.9372 133.057H16.4287C16.315 133.057 16.206 133.012 16.1256 132.932C16.0452 132.851 16 132.742 16 132.628C16 132.515 16.0452 132.406 16.1256 132.325C16.206 132.245 16.315 132.2 16.4287 132.2C23.2258 132.183 30.0235 132.171 36.8218 132.162L41.9227 132.154C42.0128 132.154 42.1006 132.183 42.1736 132.236C42.2465 132.289 42.301 132.364 42.3291 132.449L41.9398 132.575L42.3325 132.46C42.3561 132.526 42.3639 132.597 42.3554 132.666C42.347 132.736 42.3224 132.803 42.2836 132.861C42.2461 132.919 42.195 132.967 42.1346 133.002C42.0743 133.036 42.0066 133.055 41.9372 133.057Z" fill="black"/>
<path d="M45.6318 132.631H57.4935C57.4835 132.608 57.4749 132.583 57.4677 132.559C53.515 132.564 49.5625 132.571 45.6104 132.58C45.6184 132.597 45.6255 132.614 45.6318 132.631Z" fill="white"/>
<path d="M57.4938 133.058H45.633C45.545 133.058 45.4591 133.03 45.3872 132.979C45.3152 132.929 45.2606 132.857 45.2309 132.774C45.2021 132.708 45.1896 132.636 45.1944 132.564C45.1991 132.492 45.2211 132.422 45.2583 132.36C45.295 132.299 45.3462 132.248 45.4074 132.212C45.4687 132.175 45.5379 132.155 45.609 132.152L57.4673 132.131C57.559 132.131 57.6483 132.161 57.7219 132.216C57.7955 132.27 57.8496 132.347 57.8763 132.435C57.9067 132.501 57.9204 132.574 57.9159 132.647C57.9114 132.72 57.8889 132.79 57.8505 132.852C57.8131 132.913 57.7608 132.965 57.6985 133C57.6362 133.036 57.5658 133.056 57.4938 133.058Z" fill="black"/>
<path d="M103.988 81.6186C103.96 81.619 103.931 81.6165 103.903 81.6109C103.883 81.6109 101.924 81.2181 98.8876 80.5142C98.8281 80.5066 98.7708 80.4867 98.7195 80.4557C98.6681 80.4246 98.6239 80.3831 98.5896 80.3339C98.5553 80.2847 98.5318 80.2288 98.5204 80.1699C98.5091 80.111 98.5102 80.0503 98.5238 79.9919C98.5374 79.9334 98.5631 79.8785 98.5992 79.8306C98.6353 79.7828 98.6811 79.743 98.7336 79.7139C98.786 79.6848 98.844 79.6671 98.9038 79.6618C98.9635 79.6565 99.0237 79.6639 99.0805 79.6833C102.102 80.3838 104.049 80.7706 104.069 80.774C104.169 80.7988 104.257 80.8589 104.317 80.9433C104.376 81.0277 104.403 81.1308 104.393 81.2335C104.382 81.3362 104.335 81.4317 104.26 81.5025C104.185 81.5732 104.086 81.6144 103.983 81.6186H103.988Z" fill="black"/>
<path d="M88.5732 77.8562C88.5338 77.8561 88.4946 77.8509 88.4566 77.8408C84.7216 76.787 81.2602 75.6972 78.1674 74.5963C78.0702 74.5514 77.9932 74.4717 77.9517 74.373C77.9103 74.2743 77.9072 74.1636 77.9432 74.0628C77.9793 73.9619 78.0517 73.8782 78.1464 73.8281C78.241 73.7779 78.351 73.765 78.4546 73.7919C81.5268 74.8852 84.9711 75.9716 88.6881 77.0193C88.7843 77.0501 88.8666 77.1138 88.9204 77.1992C88.9742 77.2847 88.9961 77.3864 88.9823 77.4865C88.9685 77.5865 88.9197 77.6785 88.8447 77.7461C88.7697 77.8137 88.6733 77.8527 88.5723 77.8562H88.5732ZM68.4073 70.4377C68.3386 70.4377 68.271 70.4213 68.2101 70.3897C63.7832 68.0961 60.9639 65.7733 59.8296 63.4882C59.7902 63.3883 59.7899 63.2772 59.8285 63.177C59.8672 63.0768 59.9421 62.9948 60.0383 62.9471C60.1346 62.8995 60.2453 62.8897 60.3484 62.9197C60.4515 62.9497 60.5396 63.0174 60.5952 63.1092C61.6456 65.2288 64.3405 67.4239 68.6036 69.6326C68.6867 69.6778 68.7524 69.7492 68.7907 69.8356C68.8289 69.9221 68.8375 70.0188 68.8151 70.1107C68.7927 70.2025 68.7406 70.2844 68.6668 70.3435C68.593 70.4027 68.5018 70.4358 68.4073 70.4377ZM64.6346 55.1283C64.5431 55.1264 64.4546 55.0953 64.382 55.0395C64.3094 54.9837 64.2566 54.9061 64.2313 54.8181C64.206 54.7302 64.2096 54.6364 64.2414 54.5506C64.2732 54.4648 64.3317 54.3914 64.4082 54.3412C66.7645 52.9233 69.2488 51.7299 71.8284 50.7768C72.6378 50.4636 73.4438 50.1541 74.2464 49.8483C74.3493 49.8193 74.4593 49.8299 74.5549 49.8779C74.6504 49.9259 74.7245 50.0079 74.7628 50.1077C74.801 50.2076 74.8005 50.3181 74.7615 50.4176C74.7224 50.5171 74.6476 50.5985 74.5516 50.6457C73.7513 50.9521 72.9459 51.261 72.1354 51.5725C69.607 52.506 67.1718 53.6747 64.8618 55.0631C64.7946 55.1038 64.7174 55.1251 64.6389 55.1249L64.6346 55.1283ZM84.4704 46.9021C84.3718 46.8994 84.2772 46.8628 84.2025 46.7984C84.1277 46.7341 84.0775 46.646 84.0602 46.5489C84.0428 46.4518 84.0595 46.3517 84.1074 46.2655C84.1552 46.1793 84.2313 46.1122 84.3229 46.0756C87.8229 44.7894 91.2029 43.5624 94.432 42.3963C94.486 42.3701 94.5449 42.3555 94.605 42.3535C94.665 42.3515 94.7248 42.3621 94.7805 42.3847C94.8361 42.4073 94.8864 42.4413 94.9281 42.4845C94.9698 42.5278 95.0019 42.5793 95.0224 42.6358C95.0428 42.6923 95.0512 42.7524 95.0469 42.8124C95.0427 42.8723 95.0259 42.9306 94.9976 42.9836C94.9694 43.0366 94.9303 43.0831 94.8829 43.1201C94.8356 43.157 94.781 43.1835 94.7227 43.198C91.4944 44.3641 88.1204 45.5886 84.6178 46.8764C84.5719 46.8929 84.5235 46.9016 84.4747 46.9021H84.4704ZM104.689 39.5599C104.591 39.5575 104.496 39.5209 104.421 39.4565C104.346 39.392 104.295 39.3036 104.278 39.2062C104.261 39.1088 104.278 39.0084 104.326 38.9221C104.374 38.8358 104.451 38.7688 104.543 38.7325C108.8 37.1754 111.9 36.005 114.596 34.9401C114.649 34.9125 114.708 34.8963 114.768 34.8927C114.828 34.889 114.888 34.898 114.944 34.919C115 34.94 115.051 34.9725 115.094 35.0145C115.137 35.0565 115.17 35.1071 115.192 35.1628C115.214 35.2186 115.225 35.2784 115.222 35.3384C115.22 35.3983 115.205 35.4571 115.178 35.5108C115.151 35.5646 115.114 35.6121 115.068 35.6505C115.021 35.6888 114.968 35.717 114.91 35.7333C112.207 36.8016 109.1 37.9737 104.837 39.5342C104.791 39.5506 104.743 39.5593 104.694 39.5599H104.689ZM124.594 31.4212C124.499 31.4192 124.408 31.3861 124.335 31.327C124.261 31.268 124.209 31.1863 124.187 31.0947C124.164 31.0031 124.173 30.9066 124.211 30.8203C124.249 30.7339 124.314 30.6624 124.397 30.617C128.404 28.5197 130.352 26.7705 130.353 25.2675C130.329 24.7092 130.094 24.1807 129.697 23.7875C129.635 23.7013 129.606 23.5949 129.618 23.4891C129.63 23.3832 129.68 23.2854 129.76 23.2148C129.84 23.1441 129.943 23.1057 130.049 23.107C130.156 23.1082 130.258 23.1491 130.336 23.2216C130.872 23.7709 131.182 24.5007 131.207 25.2675C131.207 27.1435 129.168 29.0839 124.792 31.3724C124.731 31.4047 124.663 31.4215 124.594 31.4212ZM120.422 19.2749C120.376 19.2749 120.331 19.2677 120.287 19.2535C116.903 18.1255 113.451 17.212 109.951 16.5183C109.892 16.5114 109.836 16.4923 109.784 16.4623C109.733 16.4322 109.689 16.3919 109.654 16.3438C109.619 16.2956 109.594 16.2408 109.582 16.1827C109.569 16.1246 109.569 16.0646 109.581 16.0064C109.593 15.9482 109.617 15.8931 109.651 15.8446C109.686 15.7961 109.73 15.7553 109.781 15.7247C109.831 15.6942 109.888 15.6745 109.947 15.6671C110.006 15.6596 110.066 15.6645 110.123 15.6814C113.657 16.3827 117.143 17.3057 120.561 18.4449C120.654 18.4797 120.732 18.5457 120.782 18.6316C120.832 18.7175 120.85 18.8179 120.834 18.9159C120.818 19.0138 120.768 19.1032 120.694 19.1686C120.619 19.2341 120.524 19.2717 120.425 19.2749H120.422ZM67.2163 15.6685C67.1117 15.6623 67.013 15.618 66.9388 15.5439C66.8646 15.4698 66.8202 15.3711 66.8139 15.2665C66.8075 15.1619 66.8397 15.0585 66.9044 14.976C66.9691 14.8936 67.0618 14.8376 67.1649 14.8188C70.7892 14.367 74.3999 14.0308 77.8947 13.8182C77.9512 13.8124 78.0083 13.8184 78.0623 13.8357C78.1163 13.8531 78.1662 13.8815 78.2086 13.9191C78.2511 13.9568 78.2853 14.0029 78.3091 14.0544C78.3328 14.106 78.3456 14.1619 78.3466 14.2186C78.3527 14.3312 78.3142 14.4417 78.2394 14.5262C78.1646 14.6106 78.0596 14.6621 77.947 14.6696C74.4702 14.8814 70.8767 15.2158 67.2703 15.6651C67.2519 15.6676 67.2332 15.6688 67.2146 15.6685H67.2163ZM99.4025 14.9672C99.3885 14.9681 99.3745 14.9681 99.3605 14.9672C95.9205 14.6345 92.3218 14.4441 88.6632 14.4004C88.5495 14.3997 88.4407 14.3539 88.3608 14.273C88.2809 14.1921 88.2364 14.0828 88.2371 13.9691C88.2377 13.8554 88.2836 13.7466 88.3644 13.6667C88.4453 13.5868 88.5546 13.5423 88.6683 13.543H88.6726C92.3596 13.5867 95.9788 13.7788 99.4419 14.114C99.5463 14.1303 99.641 14.1846 99.7077 14.2665C99.7745 14.3483 99.8088 14.4519 99.8039 14.5574C99.799 14.6629 99.7553 14.7629 99.6813 14.8382C99.6072 14.9135 99.5079 14.9588 99.4025 14.9654V14.9672Z" fill="black"/>
<path d="M51.5083 18.287C51.4051 18.2829 51.3069 18.2417 51.2317 18.1709C51.1565 18.1002 51.1093 18.0047 51.0989 17.902C51.0884 17.7992 51.1154 17.6962 51.1749 17.6118C51.2344 17.5273 51.3223 17.4672 51.4225 17.4425C53.0928 17.0995 54.788 16.7668 56.4599 16.4624C56.566 16.4536 56.6716 16.4845 56.7561 16.5492C56.8407 16.614 56.8981 16.7078 56.9173 16.8126C56.9364 16.9173 56.9159 17.0254 56.8597 17.1158C56.8036 17.2062 56.7158 17.2726 56.6134 17.3018C54.9474 17.6045 53.2592 17.9329 51.5957 18.2785C51.567 18.2843 51.5376 18.2872 51.5083 18.287Z" fill="black"/>
<path d="M193.148 115.461C193.078 115.461 193.009 115.443 192.947 115.41C192.885 115.377 192.833 115.329 192.793 115.271C191.148 112.808 189.211 110.552 187.023 108.555C186.975 108.519 186.934 108.474 186.905 108.422C186.875 108.369 186.857 108.311 186.851 108.252C186.845 108.192 186.852 108.131 186.871 108.074C186.89 108.017 186.92 107.965 186.961 107.921C187.001 107.876 187.051 107.841 187.106 107.817C187.161 107.793 187.221 107.781 187.281 107.781C187.341 107.782 187.4 107.795 187.455 107.82C187.509 107.845 187.558 107.881 187.598 107.926C189.837 109.97 191.819 112.277 193.503 114.797C193.546 114.861 193.57 114.936 193.573 115.013C193.576 115.09 193.559 115.166 193.523 115.234C193.486 115.302 193.433 115.359 193.367 115.399C193.301 115.439 193.225 115.46 193.148 115.461Z" fill="black"/>
<path d="M194.94 156.908C194.867 156.907 194.795 156.888 194.731 156.851C194.667 156.814 194.614 156.762 194.576 156.699C194.539 156.636 194.518 156.565 194.516 156.491C194.514 156.418 194.531 156.345 194.565 156.28C197.594 150.554 199.214 144.188 199.29 137.711C199.366 131.234 197.896 124.831 195.002 119.036C194.962 118.937 194.961 118.826 194.998 118.726C195.036 118.625 195.109 118.543 195.205 118.494C195.3 118.445 195.41 118.434 195.513 118.463C195.617 118.491 195.705 118.557 195.762 118.648C198.718 124.566 200.219 131.104 200.141 137.719C200.064 144.334 198.41 150.835 195.317 156.682C195.28 156.75 195.226 156.807 195.159 156.847C195.093 156.887 195.017 156.908 194.94 156.908Z" fill="black"/>
<path d="M161.141 176.458C160.485 176.458 159.828 176.441 159.169 176.408C159.056 176.402 158.95 176.351 158.874 176.267C158.799 176.183 158.759 176.073 158.764 175.96C158.764 175.903 158.776 175.847 158.799 175.795C158.822 175.743 158.856 175.697 158.899 175.658C158.941 175.62 158.991 175.591 159.045 175.574C159.099 175.556 159.156 175.55 159.213 175.556C169.271 176.054 179.128 172.612 186.691 165.962C186.732 165.918 186.781 165.883 186.836 165.859C186.891 165.836 186.951 165.824 187.01 165.824C187.07 165.825 187.129 165.838 187.184 165.863C187.238 165.888 187.287 165.923 187.327 165.968C187.366 166.013 187.396 166.065 187.415 166.122C187.433 166.179 187.439 166.24 187.432 166.299C187.426 166.359 187.407 166.416 187.377 166.468C187.347 166.52 187.307 166.565 187.258 166.6C180.037 172.946 170.754 176.45 161.141 176.458Z" fill="black"/>
<path d="M191.294 165.322C190.684 165.32 190.088 165.138 189.581 164.798C189.074 164.458 188.68 163.975 188.448 163.411C188.215 162.847 188.155 162.226 188.275 161.628C188.395 161.03 188.69 160.481 189.122 160.05C189.554 159.619 190.104 159.326 190.702 159.207C191.301 159.089 191.921 159.15 192.485 159.384C193.048 159.618 193.53 160.014 193.869 160.521C194.208 161.029 194.388 161.625 194.388 162.235C194.387 163.055 194.06 163.84 193.48 164.419C192.9 164.998 192.113 165.322 191.294 165.322ZM191.294 160.006C190.853 160.008 190.424 160.141 190.058 160.387C189.693 160.633 189.409 160.982 189.242 161.39C189.075 161.797 189.033 162.245 189.12 162.677C189.207 163.109 189.42 163.505 189.733 163.815C190.045 164.126 190.442 164.337 190.874 164.422C191.306 164.508 191.754 164.463 192.161 164.294C192.567 164.125 192.915 163.839 193.159 163.473C193.404 163.106 193.534 162.676 193.534 162.235C193.532 161.643 193.295 161.075 192.875 160.657C192.455 160.239 191.886 160.005 191.294 160.005V160.006Z" fill="black"/>
<path d="M111.533 108.486C111.225 108.485 110.923 108.402 110.658 108.246L49.5969 71.3684C49.2947 71.1862 49.0548 70.9167 48.9087 70.5955C48.7626 70.2742 48.7172 69.9163 48.7785 69.5687C48.8397 69.2212 49.0048 68.9004 49.2519 68.6485C49.499 68.3965 49.8165 68.2253 50.1628 68.1573L111.22 56.3677C111.327 56.3464 111.436 56.3357 111.545 56.3359C111.655 56.3358 111.765 56.3464 111.873 56.3677L172.93 68.1513C173.276 68.2177 173.593 68.3879 173.839 68.6392C174.086 68.8918 174.251 69.2129 174.312 69.5607C174.373 69.9084 174.328 70.2665 174.182 70.5881C174.037 70.9086 173.798 71.1777 173.496 71.3598L112.438 108.244C112.17 108.402 111.865 108.485 111.554 108.486L111.533 108.057V108.486Z" fill="white"/>
<path d="M111.545 56.7617C111.627 56.7617 111.709 56.7695 111.79 56.7849L172.848 68.5686C173.109 68.6187 173.348 68.7473 173.534 68.9372C173.72 69.1284 173.845 69.3715 173.891 69.6345C173.936 69.8975 173.902 70.1681 173.791 70.4112C173.683 70.6536 173.504 70.8575 173.277 70.9959L112.217 107.877C112.016 107.996 111.788 108.058 111.555 108.058H111.536C111.303 108.058 111.075 107.996 110.875 107.877L49.8173 71.0019C49.5908 70.8637 49.4115 70.6601 49.3029 70.418C49.1929 70.1749 49.1587 69.9043 49.2046 69.6415C49.2504 69.3786 49.3743 69.1356 49.5601 68.9441C49.7461 68.7545 49.9853 68.6259 50.2461 68.5754L111.304 56.7849C111.384 56.7695 111.466 56.7617 111.548 56.7617H111.545ZM111.548 55.9043C111.411 55.9041 111.274 55.9173 111.139 55.9438L50.0823 67.7377C49.6513 67.8205 49.2561 68.0332 48.9496 68.3473C48.7206 68.582 48.5475 68.8653 48.4432 69.1762C48.3389 69.4871 48.3061 69.8176 48.3474 70.1429C48.3886 70.4683 48.5027 70.7801 48.6812 71.0552C48.8597 71.3302 49.098 71.5615 49.3783 71.7316L110.437 108.607C110.772 108.805 111.155 108.91 111.544 108.911C111.934 108.912 112.317 108.809 112.653 108.612L173.721 71.7256C174.096 71.498 174.393 71.1627 174.574 70.7635C174.755 70.3642 174.812 69.9196 174.736 69.4877C174.66 69.0558 174.456 68.6567 174.15 68.3422C173.843 68.0272 173.446 67.8139 173.015 67.7309L111.956 55.9472C111.822 55.9214 111.686 55.9084 111.549 55.9086L111.548 55.9043Z" fill="black"/>
<path d="M111.525 69.3418C111.412 69.3418 111.303 69.2966 111.222 69.2162C111.142 69.1358 111.097 69.0268 111.097 68.9131V56.7959C111.097 56.6822 111.142 56.5731 111.222 56.4927C111.303 56.4123 111.412 56.3672 111.525 56.3672C111.639 56.3672 111.748 56.4123 111.829 56.4927C111.909 56.5731 111.954 56.6822 111.954 56.7959V68.9148C111.954 69.0282 111.908 69.1368 111.828 69.2169C111.748 69.2969 111.639 69.3418 111.525 69.3418Z" fill="black"/>
<path d="M110.259 169.144C110.121 169.144 109.983 169.126 109.849 169.092L50.0755 154.356C49.6978 154.262 49.3626 154.044 49.1237 153.736C48.8849 153.428 48.7555 153.049 48.7559 152.659V69.8738C48.7545 69.4763 48.8892 69.0904 49.1378 68.7803C49.3863 68.4701 49.7336 68.2545 50.1218 68.1692C50.3788 68.1122 50.6457 68.1157 50.9012 68.1795L110.677 82.917C111.055 83.0113 111.39 83.2292 111.629 83.5361C111.868 83.844 111.998 84.2219 111.999 84.6113V167.398C111.998 167.859 111.815 168.302 111.491 168.631C111.331 168.794 111.141 168.924 110.93 169.012C110.719 169.1 110.493 169.146 110.264 169.145L110.259 169.144Z" fill="white"/>
<path d="M50.4889 68.5547C50.5932 68.5544 50.6972 68.5671 50.7984 68.5924L110.574 83.3342C110.859 83.4058 111.112 83.5709 111.293 83.803C111.474 84.0352 111.571 84.3211 111.57 84.6152V167.402C111.571 167.751 111.433 168.086 111.188 168.334C111.067 168.456 110.923 168.553 110.765 168.62C110.606 168.686 110.436 168.72 110.264 168.72H110.259C110.156 168.721 110.054 168.708 109.954 168.682L50.1776 153.945C49.8927 153.875 49.6399 153.71 49.4599 153.478C49.2793 153.245 49.1816 152.958 49.1821 152.663V69.8726C49.1821 69.6731 49.2269 69.4762 49.3133 69.2964C49.3996 69.1169 49.5257 68.9594 49.682 68.8359C49.8371 68.7127 50.0184 68.6268 50.2119 68.5847C50.3028 68.5645 50.3957 68.5544 50.4889 68.5547ZM50.4889 67.6973C50.3346 67.697 50.1808 67.7137 50.0301 67.747C49.7094 67.8174 49.4089 67.9599 49.1514 68.1637C48.894 68.3675 48.6863 68.6273 48.5442 68.9234C48.4028 69.2177 48.329 69.54 48.3281 69.8666V152.653C48.3268 153.138 48.4881 153.609 48.7862 153.992C49.0843 154.375 49.5021 154.646 49.9727 154.763L109.749 169.506C109.916 169.548 110.087 169.569 110.259 169.569C110.543 169.569 110.826 169.513 111.089 169.404C111.352 169.295 111.591 169.135 111.792 168.933C111.993 168.731 112.153 168.492 112.261 168.228C112.37 167.965 112.425 167.682 112.424 167.397V84.6109C112.425 84.126 112.263 83.6548 111.965 83.2725C111.666 82.8902 111.249 82.6188 110.778 82.5016L51.0033 67.7641C50.835 67.7225 50.6623 67.7014 50.4889 67.7016V67.6973Z" fill="black"/>
<path d="M92.2949 103.818C92.2016 103.817 92.1111 103.785 92.0377 103.728L48.9244 70.2107C48.8732 70.1707 48.8318 70.1196 48.8033 70.0612C48.7748 70.0028 48.7599 69.9387 48.7598 69.8738C48.7584 69.4763 48.8931 69.0904 49.1417 68.7803C49.3902 68.4701 49.7375 68.2545 50.1257 68.1692C50.3827 68.1122 50.6496 68.1157 50.9051 68.1795L110.681 82.917C111.058 83.0113 111.394 83.2292 111.633 83.5361C111.872 83.844 112.001 84.2219 112.003 84.6112V90.5378C112.003 90.8491 112.003 90.9665 92.5333 103.751C92.4623 103.796 92.3792 103.82 92.2949 103.818Z" fill="black"/>
<path d="M50.4889 68.5545C50.5932 68.5542 50.6972 68.5669 50.7984 68.5922L110.574 83.334C110.859 83.4056 111.112 83.5706 111.293 83.8028C111.474 84.0349 111.571 84.3209 111.57 84.615V90.5364C111.57 90.7336 92.2954 103.398 92.2954 103.398L49.1821 69.8723C49.1821 69.6729 49.2269 69.4759 49.3133 69.2961C49.3996 69.1166 49.5257 68.9592 49.682 68.8357C49.8371 68.7125 50.0184 68.6265 50.2119 68.5845C50.3028 68.5642 50.3957 68.5542 50.4889 68.5545ZM50.4889 67.697C50.3346 67.6968 50.1808 67.7135 50.0301 67.7468C49.7094 67.8171 49.4089 67.9597 49.1514 68.1635C48.894 68.3673 48.6863 68.6271 48.5442 68.9232C48.4028 69.2175 48.329 69.5398 48.3281 69.8664C48.3284 69.9963 48.3581 70.1245 48.4151 70.2412C48.4722 70.358 48.555 70.4602 48.6574 70.5403L91.7706 104.057C91.9112 104.167 92.0826 104.23 92.2607 104.237C92.4389 104.244 92.6147 104.195 92.7636 104.097C92.7636 104.097 97.584 100.931 102.404 97.7405C104.816 96.1448 107.227 94.5423 109.035 93.3273C112.424 91.0492 112.424 91.0491 112.424 90.5269V84.6047C112.425 84.1197 112.263 83.6486 111.965 83.2663C111.666 82.884 111.249 82.6126 110.778 82.4954L51.0033 67.7579C50.835 67.7162 50.6622 67.6952 50.4889 67.6953V67.697Z" fill="black"/>
<path d="M112.835 169.144C112.607 169.144 112.38 169.099 112.169 169.01C111.958 168.922 111.767 168.792 111.607 168.629C111.446 168.467 111.318 168.275 111.231 168.063C111.144 167.851 111.1 167.625 111.101 167.396V84.6121C111.1 84.2228 111.229 83.8443 111.468 83.5371C111.707 83.2299 112.043 83.0116 112.42 82.917L172.196 68.1795C172.33 68.1459 172.468 68.1289 172.607 68.1289C172.996 68.1292 173.374 68.2612 173.679 68.5036C173.886 68.6673 174.052 68.8753 174.167 69.1124C174.28 69.3503 174.339 69.6104 174.339 69.8738V152.659C174.338 153.05 174.208 153.429 173.969 153.737C173.73 154.045 173.394 154.263 173.016 154.356L113.237 169.093C113.106 169.126 112.971 169.143 112.835 169.144Z" fill="white"/>
<path d="M172.61 68.5547C172.703 68.5545 172.796 68.5645 172.886 68.5847C173.08 68.6268 173.261 68.7127 173.416 68.8359C173.572 68.9595 173.698 69.1169 173.784 69.2964C173.871 69.4761 173.916 69.673 173.916 69.8726V152.659C173.917 152.954 173.818 153.241 173.637 153.474C173.457 153.706 173.204 153.871 172.919 153.941L113.138 168.678C113.039 168.703 112.937 168.716 112.835 168.716C112.663 168.716 112.492 168.682 112.334 168.615C112.175 168.549 112.031 168.452 111.91 168.329C111.665 168.081 111.528 167.746 111.528 167.397V84.6109C111.528 84.3162 111.626 84.0299 111.807 83.7972C111.987 83.5652 112.239 83.4006 112.524 83.3299L172.298 68.5924C172.399 68.5671 172.503 68.5544 172.608 68.5547H172.61ZM172.608 67.6973C172.434 67.697 172.262 67.7181 172.093 67.7599L112.319 82.4973C111.849 82.6149 111.432 82.8864 111.134 83.2687C110.836 83.6509 110.674 84.1219 110.675 84.6066V167.393C110.673 167.968 110.9 168.519 111.305 168.926C111.71 169.333 112.26 169.563 112.835 169.565C113.008 169.565 113.181 169.543 113.349 169.5L173.121 154.765C173.591 154.648 174.009 154.377 174.308 153.994C174.606 153.611 174.768 153.14 174.767 152.655V69.8726C174.767 69.545 174.693 69.2217 174.551 68.9267C174.409 68.6317 174.202 68.3726 173.945 68.1688C173.688 67.9648 173.387 67.822 173.067 67.7513C172.916 67.718 172.762 67.7014 172.607 67.7016L172.608 67.6973Z" fill="black"/>
<path d="M133.7 110.804C133.24 110.8 132.801 110.614 132.478 110.287C132.155 109.959 131.975 109.517 131.978 109.057V78.4539C131.978 78.3587 132.01 78.2663 132.069 78.1913C132.127 78.1163 132.209 78.063 132.302 78.0398L155.184 72.3859C155.218 72.3774 155.252 72.3731 155.287 72.373C155.4 72.373 155.51 72.4182 155.59 72.4986C155.67 72.579 155.715 72.6881 155.715 72.8018V104.054C155.714 104.444 155.585 104.822 155.347 105.13C155.107 105.438 154.771 105.656 154.392 105.749L134.125 110.762C134 110.792 133.871 110.807 133.743 110.806L133.7 110.804Z" fill="#B82025"/>
<path d="M155.29 72.7988V104.051C155.29 104.346 155.191 104.633 155.01 104.866C154.83 105.097 154.577 105.262 154.292 105.332L134.025 110.342C133.934 110.363 133.84 110.374 133.746 110.374H133.716C133.544 110.374 133.374 110.34 133.215 110.273C133.056 110.207 132.912 110.11 132.791 109.987C132.545 109.74 132.406 109.405 132.405 109.056V78.4527L155.287 72.7988H155.29ZM155.287 71.9414C155.218 71.9416 155.149 71.95 155.081 71.9663L132.199 77.6201C132.014 77.6666 131.85 77.7733 131.733 77.9233C131.616 78.0732 131.552 78.258 131.551 78.4484V109.056C131.55 109.34 131.605 109.622 131.713 109.885C131.822 110.148 131.98 110.387 132.181 110.588C132.381 110.792 132.619 110.953 132.882 111.063C133.145 111.172 133.427 111.229 133.712 111.228H133.717C133.884 111.23 134.051 111.212 134.214 111.174L154.495 106.159C154.965 106.042 155.383 105.77 155.681 105.388C155.98 105.006 156.141 104.534 156.14 104.05V72.7988C156.14 72.5722 156.05 72.3547 155.891 72.1941C155.731 72.0334 155.514 71.9425 155.287 71.9414Z" fill="black"/>
<path d="M173.4 68.0302L193.518 37.8984L130.8 50.8671L111.437 83.3628L173.4 68.0302Z" fill="white"/>
<path d="M111.436 83.7916C111.361 83.7911 111.287 83.7707 111.223 83.7327C111.158 83.6947 111.104 83.6403 111.067 83.575C111.03 83.5097 111.01 83.4358 111.011 83.3606C111.011 83.2855 111.031 83.2117 111.069 83.1468L130.433 50.6503C130.463 50.5997 130.503 50.5558 130.552 50.5216C130.6 50.4874 130.654 50.4635 130.712 50.4513L193.43 37.4827C193.513 37.4664 193.599 37.4748 193.677 37.5069C193.755 37.539 193.821 37.5933 193.869 37.6632C193.916 37.733 193.941 37.8151 193.942 37.8994C193.943 37.9836 193.919 38.0663 193.873 38.1369L173.755 68.2687C173.695 68.3582 173.603 68.4215 173.498 68.4462L111.534 83.7788C111.502 83.7869 111.469 83.7912 111.436 83.7916ZM131.071 51.2479L112.327 82.7053L173.139 67.6574L192.588 38.5288L131.071 51.2479Z" fill="black"/>
<path d="M89.8677 108.982C89.8259 108.982 89.7842 108.976 89.7443 108.963L30.4273 91.0526C30.3589 91.0315 30.2969 90.9936 30.2469 90.9424C30.1969 90.8911 30.1606 90.8282 30.1411 90.7594C30.1217 90.6905 30.1198 90.6178 30.1356 90.548C30.1515 90.4782 30.1845 90.4135 30.2318 90.3598L49.9253 68.2947C49.9654 68.25 50.0144 68.2142 50.0692 68.1897C50.124 68.1652 50.1833 68.1525 50.2434 68.1523C50.2774 68.1525 50.3114 68.1566 50.3445 68.1644L110.249 82.7355C110.318 82.753 110.382 82.7875 110.434 82.8359C110.487 82.8842 110.526 82.945 110.549 83.0125C110.572 83.08 110.578 83.1523 110.566 83.2226C110.554 83.293 110.525 83.3593 110.481 83.4155L90.2021 108.821C90.162 108.871 90.1112 108.912 90.0533 108.94C89.9954 108.968 89.932 108.982 89.8677 108.982Z" fill="white"/>
<path d="M50.2428 68.5762L110.148 83.1456L89.8672 108.555L30.5485 90.6413L50.242 68.5762H50.2428ZM50.242 67.7188C50.1216 67.7187 50.0027 67.7441 49.8929 67.7933C49.7831 67.8425 49.6849 67.9144 49.6049 68.0043L29.9114 90.0685C29.8171 90.176 29.7511 90.3052 29.7195 90.4447C29.6879 90.5841 29.6916 90.7293 29.7304 90.8669C29.7691 91.0045 29.8417 91.1302 29.9415 91.2326C30.0412 91.3351 30.165 91.4109 30.3016 91.4533L89.6203 109.368C89.7004 109.391 89.7836 109.403 89.8672 109.404C89.9953 109.403 90.1217 109.374 90.2371 109.319C90.3526 109.263 90.4541 109.183 90.5343 109.083L110.815 83.6781C110.905 83.5662 110.965 83.4335 110.989 83.2923C111.014 83.151 111.002 83.0059 110.956 82.8702C110.909 82.7346 110.83 82.6129 110.724 82.5164C110.618 82.4199 110.489 82.3518 110.349 82.3182L50.4443 67.7471C50.3784 67.7311 50.3107 67.723 50.2428 67.723L50.242 67.7188Z" fill="black"/>
<path d="M42.2309 23.6929C41.9548 23.6921 41.6844 23.6136 41.4507 23.4664C41.2171 23.3192 41.0295 23.1091 40.9096 22.8603L40.811 22.6546C40.644 22.3047 40.6223 21.9029 40.7509 21.5371C40.8794 21.1713 41.1477 20.8714 41.497 20.7031L45.5381 18.7687C45.888 18.6011 46.2901 18.5792 46.6561 18.7078C47.0222 18.8364 47.3222 19.105 47.4904 19.4546L47.5899 19.6613C47.7565 20.0112 47.7779 20.4128 47.6494 20.7785C47.5209 21.1441 47.2529 21.4441 46.9039 21.6128L42.8629 23.5446C42.6661 23.6411 42.4501 23.6918 42.2309 23.6929Z" fill="white"/>
<path d="M46.1722 19.0547C46.3679 19.0546 46.5597 19.1098 46.7254 19.214C46.8911 19.3183 47.0239 19.4672 47.1085 19.6438L47.2071 19.8504C47.2659 19.9732 47.3 20.1065 47.3073 20.2425C47.3146 20.3785 47.2951 20.5146 47.2498 20.643C47.2044 20.7715 47.1343 20.8897 47.0432 20.991C46.9522 21.0923 46.8421 21.1747 46.7192 21.2334L42.6782 23.1652C42.5554 23.2241 42.4222 23.2583 42.2863 23.2656C42.1503 23.273 42.0142 23.2535 41.8858 23.2081C41.7574 23.1628 41.6392 23.0926 41.538 23.0015C41.4368 22.9104 41.3545 22.8003 41.296 22.6773L41.1965 22.4707C41.0779 22.2226 41.0627 21.9376 41.1542 21.6782C41.2457 21.4189 41.4364 21.2065 41.6844 21.0877L45.7255 19.1559C45.865 19.0894 46.0176 19.0548 46.1722 19.0547ZM46.1722 18.1973C45.8899 18.197 45.6112 18.2603 45.3568 18.3825L41.3157 20.3143C40.864 20.5309 40.5167 20.9179 40.35 21.3904C40.1833 21.8628 40.2108 22.3821 40.4265 22.8343L40.526 23.0418C40.681 23.3627 40.923 23.6336 41.2246 23.8236C41.5262 24.0135 41.875 24.1149 42.2314 24.1161C42.5137 24.1163 42.7924 24.053 43.0468 23.9309L47.0879 21.9983C47.312 21.8915 47.5129 21.7416 47.679 21.557C47.845 21.3725 47.9731 21.157 48.0557 20.9229C48.1383 20.6888 48.1739 20.4406 48.1604 20.1927C48.1469 19.9448 48.0846 19.7021 47.9771 19.4783L47.8785 19.2716C47.7234 18.9506 47.4812 18.6796 47.1795 18.4896C46.8778 18.2996 46.5287 18.1983 46.1722 18.1973Z" fill="black"/>
<path d="M40.7844 21.6759C40.532 21.676 40.2833 21.6156 40.0592 21.4997C39.835 21.3838 39.6419 21.2158 39.4961 21.0099C39.3503 20.8039 39.256 20.566 39.2212 20.3161C39.1863 20.0661 39.2119 19.8115 39.2959 19.5735L40.2056 16.9952C40.3146 16.6874 40.5162 16.4209 40.7827 16.2322C41.0492 16.0436 41.3676 15.942 41.6941 15.9414C41.8732 15.9404 42.0511 15.9694 42.2206 16.0272C42.6151 16.1666 42.9382 16.4569 43.1188 16.8344C43.2993 17.212 43.3226 17.6458 43.1835 18.0404L42.2729 20.6187C42.1645 20.9272 41.9632 21.1945 41.6966 21.3839C41.4301 21.5732 41.1113 21.6752 40.7844 21.6759Z" fill="white"/>
<path d="M41.6953 16.3685C41.8794 16.3688 42.0607 16.4131 42.2242 16.4978C42.3876 16.5825 42.5283 16.7052 42.6346 16.8555C42.7409 17.0058 42.8096 17.1793 42.8351 17.3616C42.8605 17.5439 42.8419 17.7297 42.7808 17.9033L41.8703 20.4816C41.7661 20.7661 41.5539 20.9981 41.2799 21.1273C41.0058 21.2564 40.6918 21.2724 40.4061 21.1716C40.1203 21.0709 39.8858 20.8616 39.7533 20.5891C39.6209 20.3166 39.6011 20.0029 39.6984 19.7159L40.609 17.1376C40.6879 16.9124 40.8348 16.7172 41.0294 16.579C41.224 16.4408 41.4567 16.3663 41.6953 16.3659V16.3685ZM41.6953 15.5137C41.2805 15.5141 40.876 15.6429 40.5374 15.8824C40.1987 16.1219 39.9425 16.4603 39.8038 16.8513L38.8941 19.4295C38.7295 19.928 38.7669 20.4712 38.9983 20.9424C39.2297 21.4136 39.6366 21.7753 40.1317 21.9498C40.6268 22.1244 41.1706 22.0978 41.6463 21.8759C42.1221 21.654 42.4918 21.2543 42.6762 20.7628L43.586 18.1846C43.6926 17.8826 43.7253 17.5595 43.6813 17.2423C43.6373 16.9251 43.5179 16.6231 43.3332 16.3615C43.1485 16.0999 42.9037 15.8864 42.6195 15.7389C42.3353 15.5914 42.0198 15.5142 41.6996 15.5137H41.6953Z" fill="black"/>
<path d="M45.4642 26.976C45.2852 26.9762 45.1074 26.9457 44.9386 26.886L42.3595 25.9762C42.1641 25.9073 41.9841 25.8005 41.83 25.662C41.6759 25.5235 41.5505 25.356 41.4611 25.169C41.3717 24.9821 41.32 24.7794 41.3089 24.5724C41.2978 24.3655 41.3276 24.1584 41.3966 23.963C41.4656 23.7676 41.5723 23.5877 41.7108 23.4335C41.8493 23.2794 42.0168 23.154 42.2038 23.0646C42.3907 22.9752 42.5935 22.9235 42.8004 22.9124C43.0073 22.9013 43.2144 22.9311 43.4098 23.0001L45.989 23.9098C46.3405 24.0333 46.637 24.2773 46.8259 24.5984C47.0149 24.9196 47.084 25.2972 47.0212 25.6645C46.9583 26.0317 46.7675 26.3649 46.4825 26.6049C46.1976 26.845 45.8368 26.9765 45.4642 26.976Z" fill="white"/>
<path d="M42.8808 23.3359C43.0114 23.3356 43.1411 23.3579 43.264 23.402L45.844 24.3117C45.9901 24.3593 46.1251 24.4356 46.2412 24.5361C46.3574 24.6367 46.4522 24.7595 46.5201 24.8972C46.5881 25.035 46.6278 25.1849 46.6369 25.3382C46.646 25.4916 46.6244 25.6452 46.5732 25.79C46.5221 25.9348 46.4425 26.068 46.3391 26.1816C46.2358 26.2952 46.1107 26.387 45.9713 26.4515C45.8319 26.5161 45.6811 26.5521 45.5276 26.5574C45.3741 26.5628 45.221 26.5374 45.0775 26.4827L42.4975 25.573C42.2416 25.4824 42.0259 25.3042 41.8885 25.07C41.7512 24.8358 41.701 24.5606 41.7468 24.293C41.7927 24.0254 41.9316 23.7826 42.1391 23.6075C42.3466 23.4324 42.6093 23.3362 42.8808 23.3359ZM42.8808 22.4785C42.4081 22.4789 41.9508 22.6464 41.5896 22.9513C41.2284 23.2561 40.9865 23.6788 40.9067 24.1447C40.8269 24.6106 40.9143 25.0897 41.1534 25.4974C41.3926 25.9052 41.7681 26.2152 42.2137 26.373L44.7928 27.2827C45.041 27.3703 45.304 27.4083 45.5668 27.3943C45.8296 27.3803 46.0871 27.3147 46.3246 27.2012C46.5621 27.0877 46.7749 26.9285 46.9508 26.7328C47.1268 26.5371 47.2625 26.3086 47.3501 26.0604C47.4378 25.8123 47.4757 25.5493 47.4617 25.2864C47.4477 25.0236 47.3821 24.7661 47.2686 24.5286C47.1551 24.2912 46.996 24.0784 46.8002 23.9025C46.6045 23.7265 46.376 23.5908 46.1279 23.5032L43.5487 22.5934C43.3343 22.5173 43.1083 22.4784 42.8808 22.4785Z" fill="black"/>
<path d="M39.252 25.1378C39.0094 25.1378 38.7717 25.0693 38.5665 24.94C38.3612 24.8107 38.1967 24.626 38.0919 24.4073L37.8346 23.8782C37.713 23.5751 37.7113 23.2371 37.8299 22.9327C37.9484 22.6284 38.1783 22.3805 38.4728 22.2394C38.7674 22.0984 39.1046 22.0747 39.416 22.1731C39.7274 22.2716 39.9897 22.4848 40.1497 22.7696L40.4069 23.2995C40.554 23.6072 40.5728 23.9607 40.4593 24.2822C40.3458 24.6038 40.1092 24.8672 39.8016 25.0143C39.6299 25.0962 39.4421 25.1384 39.252 25.1378Z" fill="white"/>
<path d="M38.9977 22.4663C39.1593 22.4667 39.3174 22.5127 39.4539 22.599C39.5904 22.6853 39.6998 22.8085 39.7694 22.9542L40.0267 23.4832C40.1249 23.6886 40.1375 23.9245 40.0618 24.1392C39.9861 24.3539 39.8281 24.5297 39.6228 24.6279C39.4175 24.7262 39.1815 24.7388 38.9668 24.6631C38.7522 24.5873 38.5764 24.4294 38.4781 24.2241L38.2252 23.695C38.1625 23.5644 38.1338 23.42 38.142 23.2753C38.1502 23.1307 38.1949 22.9905 38.272 22.8677C38.349 22.745 38.456 22.6439 38.5827 22.5737C38.7095 22.5035 38.852 22.4665 38.9969 22.4663H38.9977ZM38.9969 21.6089C38.7081 21.6099 38.4243 21.6839 38.1717 21.8238C37.9191 21.9638 37.706 22.1653 37.552 22.4096C37.3981 22.654 37.3084 22.9332 37.2911 23.2215C37.2739 23.5097 37.3298 23.7977 37.4535 24.0586L37.7107 24.5876C37.8508 24.8782 38.0698 25.1236 38.3428 25.2957C38.6157 25.4678 38.9315 25.5597 39.2541 25.5608C39.51 25.5601 39.7624 25.5015 39.9924 25.3893C40.4011 25.1929 40.7154 24.8425 40.8664 24.4149C41.0175 23.9873 40.993 23.5173 40.7983 23.1077L40.5411 22.5787C40.4009 22.2881 40.1818 22.0429 39.9089 21.8708C39.6361 21.6988 39.3203 21.6068 38.9977 21.6055L38.9969 21.6089Z" fill="black"/>
<path d="M36.9639 26.8523C36.9157 26.8523 36.8679 26.8442 36.8224 26.8283C36.7165 26.7896 36.6302 26.7108 36.5821 26.6089C36.5339 26.507 36.5279 26.3902 36.5652 26.2839L37.1928 24.5047L35.3802 23.8651C35.3218 23.851 35.2671 23.8249 35.2195 23.7883C35.1718 23.7518 35.1324 23.7057 35.1038 23.6529C35.0751 23.6002 35.0579 23.542 35.0531 23.4822C35.0484 23.4223 35.0562 23.3622 35.0762 23.3056C35.0962 23.249 35.1278 23.1972 35.169 23.1536C35.2103 23.11 35.2603 23.0755 35.3157 23.0525C35.3711 23.0294 35.4307 23.0182 35.4907 23.0197C35.5507 23.0211 35.6097 23.0351 35.664 23.0608L37.8787 23.8419C37.9844 23.8806 38.0705 23.9593 38.1187 24.061C38.1668 24.1627 38.173 24.2793 38.136 24.3855L37.3643 26.5677C37.3348 26.6504 37.2805 26.7221 37.2089 26.7731C37.1373 26.824 37.0517 26.8516 36.9639 26.8523Z" fill="black"/>
</svg>
