<svg xmlns="http://www.w3.org/2000/svg" width="240" height="240" fill="none" viewBox="0 0 240 240">
    <circle cx="120" cy="127.885" r="102" fill="url(#paint0_linear)"/>
    <mask id="7th7kz4j2a" width="204" height="205" x="18" y="25" maskUnits="userSpaceOnUse">
        <circle cx="120" cy="127.885" r="102" fill="url(#paint1_linear)"/>
    </mask>
    <g mask="url(#7th7kz4j2a)">
        <path fill="#F5F6F7" d="M58.266 142.279c-.094-.83-.461-1.604-1.043-2.201-.581-.597-1.345-.981-2.168-1.093-.699-.093-1.41.018-2.046.322v-.352c.004-1.363-.365-2.701-1.067-3.868-.701-1.167-1.708-2.118-2.911-2.75-1.203-.632-2.555-.92-3.91-.833-1.354.088-2.66.547-3.772 1.328-.32-1.471-.937-2.86-1.814-4.081-.877-1.221-1.994-2.247-3.283-3.015-1.29-.768-2.722-1.262-4.209-1.45-1.487-.188-2.997-.067-4.435.357-1.438.423-2.774 1.139-3.925 2.103-1.151.965-2.092 2.157-2.765 3.502-.672 1.345-1.062 2.815-1.144 4.318-.083 1.503.144 3.007.665 4.419-.848-.108-1.706.084-2.429.541v-.205c-.095-1.812-.878-3.518-2.19-4.768-1.31-1.249-3.048-1.945-4.855-1.945-1.806 0-3.544.696-4.855 1.945-1.31 1.25-2.094 2.956-2.19 4.768.004.376.035.751.093 1.123H-7.83c-.788 0-1.543.314-2.1.873-.556.559-.869 1.318-.869 2.108 0 .791.313 1.549.87 2.108.556.56 1.311.874 2.099.874h63.687v-.234c.777-.286 1.436-.825 1.873-1.531.436-.705.625-1.537.537-2.363z"/>
        <path fill="#CECED2" d="M34.09 206.336s24.104-45.657 52.818-45.171c41.305.665 67.081 40.155 67.081 40.155L34.09 206.336z"/>
        <path fill="#E4E4E4" d="M94.376 206.336s34.057-58.09 62.764-57.611c41.305.665 62.771 56.64 62.771 56.64l-125.535.971z"/>
        <path fill="#D7D8DB" d="M225.42 213.993c0 10.099-45.229 10.039-96.281 16.918-79.772 10.751-95.049-24.575-95.049-24.575 3.831-9.58 52.551-22.173 100.019-22.173s91.311 19.725 91.311 29.83z"/>
        <path fill="#EFEFEF" d="M248.256 126.112h-15.723c.494-1.811.282-3.741-.592-5.402-.522-1.049-1.271-1.97-2.193-2.695-.922-.725-1.993-1.236-3.137-1.496-1.351-.284-2.754-.204-4.064.233v-.253c-.004-3.441-1.293-6.757-3.614-9.3-2.321-2.543-5.508-4.131-8.938-4.454-3.431-.322-6.859.644-9.614 2.71-2.756 2.066-4.642 5.083-5.289 8.463-1.272-.247-2.583-.22-3.844.082-1.261.301-2.442.868-3.465 1.664-1.022.795-1.862 1.801-2.463 2.948s-.949 2.409-1.02 3.701h-21.366c-1.276-.019-2.51.455-3.445 1.322-.935.868-1.498 2.063-1.572 3.335-.02.645.089 1.286.322 1.888.233.601.585 1.15 1.034 1.613.449.463.987.831 1.582 1.082.594.251 1.234.38 1.879.38h85.522c.749-.036 1.455-.358 1.973-.9.517-.542.806-1.262.806-2.011 0-.748-.289-1.468-.806-2.01-.518-.542-1.224-.864-1.973-.9z"/>
        <path fill="#D7D8DB" d="M52.332 195.945c7.948 9.407 31.439 27.422 91.491 19.326 30.233-4.071 58.427-5.715 76.395-8.469-12.965-10.185-48.381-22.619-86.095-22.619-31.025-.02-62.577 5.362-81.791 11.762z"/>
        <path fill="#F5F6F7" d="M73.65 197.675h9.534v-31.593c5.434-.381 10.522-2.803 14.239-6.779 3.717-3.976 5.787-9.21 5.794-14.65 0-1.295-.515-2.537-1.432-3.452-.917-.916-2.161-1.431-3.458-1.431-1.297 0-2.54.515-3.458 1.431-.917.915-1.432 2.157-1.432 3.452-.004 2.851-1.047 5.602-2.934 7.74-1.886 2.139-4.488 3.519-7.319 3.883v-13.399c.024-.64-.081-1.278-.31-1.877-.229-.598-.576-1.144-1.021-1.605-.445-.462-.979-.829-1.57-1.079-.59-.251-1.224-.38-1.866-.38-.641 0-1.276.129-1.866.38-.59.25-1.124.617-1.57 1.079-.444.461-.791 1.007-1.02 1.605-.229.599-.334 1.237-.31 1.877v24.455c-2.467-.695-4.639-2.176-6.184-4.218-1.546-2.042-2.38-4.532-2.377-7.091.024-.656-.085-1.31-.32-1.924-.234-.613-.59-1.172-1.046-1.645-.456-.473-1.003-.849-1.608-1.105-.605-.257-1.256-.389-1.913-.389s-1.308.132-1.913.389c-.605.256-1.152.632-1.608 1.105-.456.473-.812 1.032-1.047 1.645-.234.614-.343 1.268-.319 1.924.008 5.145 1.861 10.118 5.225 14.016 3.364 3.898 8.014 6.464 13.11 7.232v20.404zM100.119 168.663c.028-.476.237-.923.585-1.25.347-.326.806-.508 1.283-.508.478 0 .937.182 1.284.508.347.327.557.774.585 1.25-.007 1.095.387 2.155 1.109 2.98.722.824 1.721 1.357 2.808 1.497v-5.123c0-.481.192-.943.533-1.284.341-.341.804-.532 1.286-.532.483 0 .946.191 1.289.532.342.34.535.802.537 1.284v9.314c.939-.267 1.765-.833 2.354-1.61.589-.778.908-1.726.91-2.701.029-.476.238-.923.585-1.249.347-.327.807-.509 1.284-.509s.936.182 1.283.509c.348.326.557.773.586 1.249-.006 1.963-.715 3.86-1.999 5.346-1.284 1.486-3.059 2.464-5.003 2.757v7.916c-.002.483-.195.945-.537 1.285-.343.34-.806.532-1.289.532-.482 0-.945-.192-1.286-.532-.341-.341-.533-.803-.533-1.285v-12.187c-2.076-.146-4.019-1.072-5.44-2.592-1.42-1.519-2.211-3.519-2.214-5.597z"/>
        <path fill="#DDD" d="M194.588 184.01c.051-.404.249-.777.555-1.046.307-.27.702-.419 1.11-.419.409 0 .804.149 1.11.419.307.269.505.642.556 1.046.002.979.359 1.923 1.006 2.657.648.735 1.54 1.209 2.512 1.335v-4.597c0-.433.171-.848.477-1.155.306-.306.721-.48 1.155-.481.434 0 .851.172 1.159.479.307.307.48.723.48 1.157v8.362c.844-.238 1.587-.746 2.116-1.445.529-.698.815-1.55.815-2.426.051-.405.249-.778.556-1.047.306-.27.701-.419 1.11-.419.408 0 .803.149 1.11.419.306.269.504.642.555 1.047.005 1.77-.627 3.483-1.781 4.827-1.155 1.343-2.755 2.227-4.508 2.49v7.092c0 .434-.173.85-.48 1.157-.307.307-.724.48-1.159.48-.433-.002-.848-.175-1.154-.482-.306-.307-.478-.722-.478-1.155v-10.943c-1.855-.143-3.588-.979-4.853-2.342-1.265-1.362-1.968-3.152-1.969-5.01z"/>
        <path fill="#F5F6F7" d="M201.23 160.32c-1.06 0-2.076.421-2.826 1.169-.75.749-1.171 1.764-1.171 2.823v.213c-.002 1.652-.66 3.237-1.83 4.406-1.17 1.168-2.757 1.826-4.412 1.827h-2.339V149.29c-.045-1.184-.548-2.305-1.403-3.127-.855-.823-1.996-1.282-3.184-1.282-1.187 0-2.328.459-3.183 1.282-.855.822-1.358 1.943-1.403 3.127v11.875c-1.166-.059-2.264-.563-3.068-1.407-.805-.844-1.254-1.965-1.256-3.13v-.619c0-1.058-.421-2.073-1.171-2.822-.75-.749-1.766-1.169-2.826-1.169-1.061 0-2.077.42-2.827 1.169-.75.749-1.171 1.764-1.171 2.822v.619c.008 3.278 1.3 6.423 3.599 8.763 2.3 2.339 5.424 3.688 8.706 3.757v10.551h-2.558c-1.654-.001-3.24-.658-4.41-1.825-1.17-1.167-1.829-2.75-1.832-4.401 0-1.059-.422-2.074-1.171-2.823-.75-.748-1.767-1.169-2.827-1.169s-2.077.421-2.826 1.169c-.75.749-1.171 1.764-1.171 2.823.003 3.771 1.505 7.386 4.176 10.053 2.67 2.667 6.291 4.166 10.068 4.17h2.558v8.801h9.18v-17.749h2.345c3.777-.003 7.398-1.503 10.068-4.17 2.671-2.666 4.173-6.282 4.176-10.053v-.213c0-.525-.104-1.046-.305-1.531-.202-.485-.498-.925-.87-1.296-.373-.371-.815-.665-1.302-.865-.486-.199-1.007-.301-1.534-.3z"/>
        <path fill="#EAEAEA" d="M54.304 186.133c-.363 0-.711.143-.968.399-.258.255-.403.602-.405.964v.074c0 .565-.224 1.107-.624 1.507-.4.401-.942.626-1.508.628h-.806v-7.351c0-.416-.165-.816-.46-1.11-.295-.295-.695-.46-1.112-.46-.417 0-.817.165-1.112.46-.295.294-.46.694-.46 1.11v4.091c-.4-.022-.774-.195-1.05-.485-.274-.289-.428-.672-.43-1.071v-.207c0-.363-.144-.712-.401-.969-.258-.257-.607-.401-.97-.401-.365 0-.714.144-.971.401s-.402.606-.402.969v.207c.003 1.125.447 2.204 1.236 3.007.79.803 1.861 1.266 2.988 1.29v3.613h-.88c-.567 0-1.11-.225-1.512-.626-.4-.4-.626-.944-.626-1.51.013-.187-.013-.376-.076-.553-.063-.177-.161-.34-.29-.477-.128-.138-.283-.247-.456-.322-.173-.075-.359-.114-.547-.114-.189 0-.375.039-.547.114-.173.075-.328.184-.457.322-.128.137-.227.3-.29.477-.063.177-.088.366-.075.553.001 1.292.516 2.53 1.43 3.444.914.914 2.153 1.429 3.446 1.432h.88v3.327c.005.413.173.807.467 1.097.295.29.691.453 1.105.453.417 0 .817-.166 1.112-.46.295-.294.46-.694.46-1.11v-6.413h.806c1.294-.004 2.533-.519 3.447-1.433.914-.914 1.428-2.152 1.43-3.444v-.073c-.003-.36-.15-.705-.407-.958s-.604-.394-.965-.392z"/>
    </g>
    <path fill="#1A1421" d="M165.026 207.555c.146-5.358-23.641-5.082-24.46-9.687-.82-4.606-24.647-6.234-25.687 5.706-1.039 11.94 13.882 13.945 24.461 9.687 10.579-4.257 25.541-.348 25.686-5.706z" opacity=".05"/>
    <path fill="#78787A" d="M159.33 21.423c.081-.895-.625-1.872-2.195-2.558-1.21-.51-2.538-.67-3.834-.463-1.695.282-2.607 1.06-2.749 1.941l-21.5 183.076c-.169 1.377 1.666 2.731 4.093 3.028 2.426.297 4.535-.583 4.704-1.96l21.49-183.065h-.009z"/>
    <path fill="#A7A8AA" d="M159.356 21.42c.168-1.375-1.665-2.73-4.095-3.027-2.43-.297-4.536.576-4.704 1.95-.169 1.375 1.665 2.73 4.094 3.027 2.43.298 4.536-.576 4.705-1.95z"/>
    <path fill="#E13E49" d="M194.425 110.878l-6.804-15.995-53.37-40.1-4.655 1.966-2.428 19.92 53.37 40.099 4.721-1.892 9.166-3.998z"/>
    <path fill="#E13E49" d="M129.596 56.75l53.37 40.098 6.813 15.995-9.241 3.925-53.37-40.099 2.428-19.92z"/>
    <path fill="#1A1421" d="M129.596 56.744l53.369 40.108 6.828 16.044-9.254 3.877-53.369-40.108 2.426-19.92z" opacity=".3"/>
    <path fill="#1A1421" d="M187.623 94.884l-4.655 1.966-53.371-40.1 4.655-1.966 53.371 40.1z" opacity=".2"/>
    <path fill="#1A1421" d="M182.967 96.844l4.655-1.966 6.803 15.995-4.631 2.013-6.827-16.042z" opacity=".3"/>
    <path fill="#E13E49" d="M181.759 57.835l-53.356-40.16-9.251 3.927 6.814 15.994 53.354 40.15 2.439-19.91z"/>
    <path fill="#E13E49" d="M128.404 17.675l4.523-2.013 53.45 40.212-4.616 1.962-53.357-40.16z"/>
    <path fill="#fff" d="M128.405 17.67l4.522-2.013 53.45 40.222-4.616 1.962-53.356-40.17z" opacity=".4"/>
    <path fill="#E13E49" d="M183.938 75.788l-4.616 1.952 2.438-19.91 4.615-1.962-2.437 19.92z"/>
    <path fill="#1A1421" d="M183.938 75.788l-4.616 1.952 2.438-19.91 4.615-1.962-2.437 19.92z" opacity=".2"/>
    <path fill="#E13E49" d="M159.72 117.602l-53.365-40.158-9.252 3.926 6.814 15.994 53.364 40.149 2.439-19.911z"/>
    <path fill="#E13E49" d="M106.355 77.444l4.532-2.015 53.44 40.213-4.606 1.961-53.366-40.16z"/>
    <path fill="#fff" d="M106.355 77.439l4.532-2.014 53.44 40.222-4.605 1.961-53.367-40.17z" opacity=".4"/>
    <path fill="#E13E49" d="M161.888 135.556l-4.606 1.952 2.438-19.91 4.605-1.961-2.437 19.919z"/>
    <path fill="#1A1421" d="M161.888 135.556l-4.606 1.952 2.438-19.91 4.605-1.961-2.437 19.919z" opacity=".2"/>
    <path fill="#333" d="M121.221 193.388c.38-1.314.287-2.72-.264-3.973-.81-1.753-2.576-2.483-4.371-2.855-2.06-.418-4.16-.603-6.261-.552-4.158.101-8.245 1.099-11.981 2.925-1.793.841-3.45 1.946-4.914 3.278l-.154.154c-.407.273-.805.551-1.193.839-1.5 1.075-2.8 2.405-3.84 3.928-.3.468-.568.956-.8 1.461-.401.727-.702 1.506-.895 2.314-.222.89-.194 1.825.08 2.701.275.876.786 1.659 1.476 2.265 1.492 1.331 3.481 1.793 5.44 1.882 1.684.056 3.368-.022 5.039-.233.97-.055 1.929-.154 2.864-.288.607-.085 1.219-.179 1.825-.278.289 2.448 1.264 4.866 2.174 7.121 0 .055.119.03.094-.03-.9-2.274-1.805-4.698-1.989-7.141 3.107-.474 6.136-1.368 9.002-2.657 1.725-.801 3.313-1.868 4.704-3.163 1.179-1.113 2.367-2.687 2.288-4.391.551-.618.996-1.323 1.318-2.085.166-.392.286-.802.358-1.222zm-22.225 13.314c-2.701.194-5.844 0-8.316-1.316 1.715.435 3.47.693 5.237.77 1.977.083 3.957-.04 5.908-.368.219 0 .438 0 .647-.044.209-.045.497-.055.706-.09v.383c-1.049.228-2.104.417-3.153.571-.323.035-.686.069-1.03.094zm10.08-18.091c1.785.095 3.539.503 5.182 1.206 1.492.661 2.85 1.833 2.84 3.556v.224c-.549-.224-1.124-.379-1.711-.462-.159 0-.313-.035-.472-.05-.676-.382-1.398-.676-2.149-.874-.984-1.206-2.297-2.103-3.779-2.582-1.347-.451-2.757-.686-4.178-.696.542-.124 1.089-.243 1.636-.347.877-.047 1.756-.039 2.631.025zm7.49 8.939c-.145-.185-.312-.352-.497-.497.184-.203.359-.415.522-.636.052.373.044.752-.025 1.123v.01zm-11.354 7.727c.895-.179 1.785-.373 2.671-.596-1.421.516-2.873.942-4.347 1.276v-.362c.562-.095 1.119-.219 1.676-.318zm-1.119-2.513c0-.03 0-.06.035-.084.037.044.087.076.143.091.056.015.116.013.17-.007 2.026-.582 4.018-1.275 5.968-2.076 1.846-.737 3.558-1.772 5.068-3.064.299.232.524.546.646.904-.427.273-.86.526-1.298.77-3.409 1.844-7.077 3.163-10.881 3.913.055-.149.094-.318.149-.447zm.274-.646c.649-1.347 1.707-2.456 3.023-3.168 1.629-.833 3.374-1.414 5.177-1.723.765-.197 1.569-.176 2.323.059-.169.144-.343.284-.497.413-2.954 2.215-6.545 3.347-10.026 4.419zm.661 1.61c2.131-.474 4.22-1.12 6.246-1.932-1.798.953-3.683 1.734-5.629 2.334-.378.119-.761.223-1.149.328l-.821.168h-.035c.03-.218.07-.432.115-.65.423-.09.85-.159 1.273-.248zm-1.8.993c-.597.115-1.203.173-1.811.174-.548 0-1.089-.126-1.581-.368 1.167-.106 2.327-.26 3.481-.462-.049.214-.069.427-.089.641v.015zm12-4.47c-.06.075-.119.154-.184.224l-.313.332c-.234.154-.498.298-.691.437-.753.474-1.543.886-2.363 1.232l-.283.109c1.338-.696 2.627-1.483 3.859-2.354l-.025.02zm.294-3.556l-.065-.034c-.993-.387-2.086-.434-3.108-.134-1.89.377-3.709 1.047-5.391 1.986-1.589.928-2.775 2.414-3.327 4.167-.07.223-.13.447-.184.665-1.433.262-2.879.443-4.332.541-.282-.49-.364-1.07-.229-1.619.212-.841.61-1.625 1.164-2.294 3.536-.466 6.939-1.649 10.001-3.476.84-.499 1.648-1.052 2.417-1.654.346-.251.611-.595.766-.993.562-.05 1.128-.05 1.691 0 .645.427 1.151 1.033 1.457 1.743-.25.389-.538.751-.86 1.083v.019zm-23.46-1.787c.026-.045.06-.09.09-.139 2.483-1.966 5.276-3.503 8.266-4.549l.214-.07c2.879-.636 6.097-.745 8.812.447.71.301 1.368.711 1.95 1.217l.129.114c-1.601-.311-3.237-.404-4.864-.278-3.602.283-7.051 1.58-9.946 3.739-1.475 1.026-2.724 2.343-3.67 3.869-.365-.077-.705-.239-.995-.472-1.139-.958-.602-2.796.015-3.878zm20.446-1.778c-1.164.154-2.313.401-3.437.74-3.481.993-7.121 2.523-9.504 5.398l-.06.074c-.71.085-1.417.144-2.133.169-.935.032-1.872.008-2.805-.069-.263 0-.552-.04-.845-.07.277-.448.595-.871.95-1.261 1.119-1.246 2.414-2.322 3.844-3.193 2.848-1.739 6.112-2.679 9.449-2.722 1.458-.029 2.913.139 4.327.497.091.135.163.282.214.437zm-.11.779c-.285.309-.612.578-.969.8-.398.288-.801.566-1.214.829-.752.482-1.528.923-2.327 1.321-2.241 1.113-4.634 1.888-7.102 2.3.343-.348.706-.676 1.059-.969 1.354-1.076 2.863-1.941 4.476-2.567 1.666-.687 3.395-1.211 5.162-1.565.289-.059.607-.104.915-.149zm-19.027 6.109c1.835.271 3.697.304 5.54.099-.761 1.147-1.318 2.558-.796 3.834l-.572.03c-1.323.035-3.014-.08-3.953-1.137-.717-.85-.632-1.878-.22-2.826zm23.046-5.637c-.085-.104-.179-.198-.269-.298.271.079.535.177.791.293-.054.169-.117.335-.189.497-.099-.172-.21-.336-.333-.492zm-27.651 9.58c-.57-.569-.976-1.281-1.174-2.061-.167-.916 0-1.862.467-2.667.752-1.293 1.719-2.449 2.86-3.417-.076.248-.134.5-.174.755-.13.709-.026 1.44.293 2.086.184.308.429.574.72.784.29.209.621.356.971.433-.3.66-.392 1.396-.263 2.11.084.384.245.747.472 1.068.227.32.516.592.85.8 1.358.889 3.144.859 4.7.769h.06c.24.3.542.544.885.716-1.376.121-2.76.136-4.138.044-1.732-.114-3.448-.412-5.117-.889-.438-.113-.867-.259-1.283-.437l-.13-.094zm28.377-6.128c.156-.712.132-1.451-.07-2.151.185-.315.339-.647.458-.993.298.175.558.408.765.686.207.277.356.592.438.928-.408.461-.845.895-1.308 1.301l-.283.229zm2.178-2.24c-.334-.729-.903-1.326-1.616-1.693.057-.372.057-.751 0-1.123-.269-1.728-1.701-2.905-3.223-3.585-1.36-.594-2.799-.988-4.272-1.167l.313-.03c1.94-.199 3.979-.378 5.864.124.798.177 1.548.524 2.199 1.017.652.492 1.189 1.12 1.576 1.839.426.94.466 2.01.109 2.979-.25.582-.569 1.133-.95 1.639zm-18.62-6.953c3.584-1.397 7.415-2.053 11.26-1.926 1.922.014 3.833.293 5.679.829.859.24 1.627.729 2.208 1.405.228.291.41.614.542.959-.071-.114-.149-.223-.233-.328-2.631-3.203-7.321-2.667-10.976-2.185-1.08.139-2.164.323-3.238.541-1.002.08-1.998.219-2.984.417-1.703.348-3.369.86-4.973 1.53.881-.465 1.788-.881 2.715-1.247v.005zm-12.83 15.892c-.095-.139-.175-.283-.254-.427.035.045.073.088.114.129.219.2.465.367.731.497.406.384.85.726 1.323 1.023.909.55 1.89.971 2.914 1.251l-.323-.079c-1.726-.244-3.481-.944-4.506-2.424v.03zm26.477-2.145c-.916.573-1.878 1.071-2.875 1.49.418-.219.836-.442 1.234-.686.398-.243.656-.417.994-.645.883-.468 1.706-1.04 2.452-1.704.294-.241.532-.544.695-.888.163-.343.249-.718.25-1.098l.105-.09c.522-.359 1.02-.752 1.491-1.177-.121.45-.307.88-.552 1.277-.9 1.435-2.362 2.577-3.794 3.491v.03z"/>
    <g opacity=".85">
        <path fill="#fff" d="M131.966 32.616l.114-1.742 2.312-2.814-.223 3.376-.555.615.49.377-.115 1.742-2.023-1.554zm2.505 3.922l.619-9.392 1.491 1.145-.379 5.748.575.442-.115 1.741-.575-.441-.125 1.903-1.491-1.145zM139.221 40.186c-1.015-.78-1.596-2.159-1.741-4.138-.047-.655-.045-1.363.005-2.122.189-2.858.87-3.968 2.044-3.33.1.059.204.129.31.21l-.118 1.796c-.369-.17-.611.324-.725 1.485-.02.2-.041.465-.063.796l-.02.295c-.081 1.233-.048 2.093.099 2.581.079.267.188.478.327.632l-.118 1.795zm.586.45l.118-1.795c.369.17.611-.324.725-1.485.02-.2.041-.465.063-.796l.02-.295c.081-1.233.048-2.093-.099-2.581-.079-.268-.188-.478-.327-.632l.118-1.795c1.015.78 1.596 2.159 1.741 4.138.047.655.045 1.362-.005 2.122-.189 2.858-.87 3.968-2.044 3.33-.1-.059-.204-.129-.31-.21zM142.509 40.713l.115-1.742 2.312-2.814-.223 3.376-.555.616.49.376-.115 1.742-2.024-1.554zm2.506 3.923l.619-9.393 1.491 1.145-.379 5.748.575.442-.115 1.742-.575-.442-.125 1.903-1.491-1.145zM150.297 48.692l.619-9.38 3.876 2.978-.123 1.876-2.375-1.824-.126 1.903 1.374 1.055-.124 1.89-1.374-1.056-.12 1.822 2.375 1.824-.125 1.89-3.877-2.978zM155.026 52.324l.504-7.638 1.448 1.112-.056.845c.275-.212.631-.23 1.067-.054.153.06.303.148.453.263l.383.294-.449 1.542c-.447-.334-.851-.386-1.209-.154-.257.168-.398.44-.423.815l-.27 4.087-1.448-1.112zM158.871 55.276l.503-7.637 1.449 1.112-.056.844c.275-.21.631-.229 1.067-.053.152.06.303.148.452.263l.384.294-.449 1.542c-.448-.335-.851-.386-1.209-.154-.258.168-.399.44-.423.815l-.27 4.087-1.448-1.113zM162.81 56.12l.231-3.498c.028-.438.209-.75.542-.934.417-.215.921-.1 1.511.343l-.115 1.742c-.322-.21-.504-.171-.545.116l-.206 3.122c-.009.36.15.67.476.929l-.115 1.742c-.696-.535-1.212-1.302-1.549-2.302-.175-.519-.251-.94-.23-1.26zm2.269 3.938l.115-1.742c.301.184.476.14.523-.133l.197-3.157c-.028-.36-.18-.655-.456-.885l.115-1.742c.667.512 1.167 1.253 1.498 2.22.175.52.251.944.23 1.275l-.231 3.497c-.029.447-.211.767-.544.961-.403.226-.885.128-1.447-.294zM167.785 62.122l.504-7.638 1.448 1.113-.055.844c.275-.211.63-.23 1.066-.054.153.061.304.149.453.263l.383.295-.448 1.542c-.448-.335-.851-.386-1.21-.155-.257.169-.398.44-.423.816l-.269 4.086-1.449-1.112z"/>
    </g>
    <g opacity=".85">
        <path fill="#fff" d="M137.662 77.19l.89-9.358 1.468 1.196-.891 9.358-1.467-1.196zm2.435-2.61l.176-1.845.343.28c.299.243.488.215.569-.084.012-.048.021-.103.027-.165 0-.47-.155-.851-.463-1.141l-.344-.28.177-1.858.385.313c1.292 1.12 1.871 2.496 1.738 4.126-.113 1.194-.454 1.747-1.021 1.66-.316-.057-.717-.287-1.202-.692l-.385-.314zM142.638 79.345c-.049.517.1 1.11.448 1.777.297.569.678 1.043 1.143 1.422l.157-1.645c-.354-.288-.542-.556-.563-.804-.002-.06 0-.116.005-.17l.018-.186c.021-.146.076-.212.164-.197.037.001.171.057.399.166.56.246.941.373 1.142.383l-.105 1.097c-.025.267-.138.357-.34.27-.05-.022-.103-.055-.158-.1l-.157 1.644c.431.342.795.485 1.092.429.23.495.556.914.979 1.26l.158-1.658c-.185-.17-.269-.393-.25-.666l.332-3.489c.046-.49-.07-1.075-.349-1.754-.311-.743-.726-1.326-1.247-1.75l-.156 1.644c.295.27.432.568.408.894l-.029.308c-.024.25-.422.232-1.195-.052-.666-.236-1.047-.359-1.143-.37-.397.012-.627.3-.688.865l-.065.682zm.448-3.884l1.152 1.572c.06-.555.25-.708.57-.457l.157-1.644c-.479-.39-.92-.51-1.323-.358-.32.142-.505.438-.556.887zM147.089 87.612l.479-1.381 2.061 1.68c.223.172.378.159.464-.04.008-.012.013-.023.014-.032l.06-.628c-.149-.083-.307-.192-.474-.328l.158-1.658c.3.226.47.206.51-.06l.325-3.408c.012-.125-.04-.287-.156-.487-.077-.13-.168-.238-.272-.323l.159-1.67c.167.135.32.29.461.461l.008-.08 1.332 1.086-.779 8.181c-.037.393-.211.688-.522.886-.414.267-.889.188-1.424-.239l-2.404-1.96zm.552-4.62l.335-3.517c.047-.422.236-.719.567-.891.409-.214.885-.105 1.427.328l-.159 1.67c-.25-.203-.421-.217-.512-.042-.01.02-.015.036-.016.045l-.329 3.462c-.02.205.069.416.265.634.054.063.115.123.185.18l-.158 1.657c-.653-.532-1.126-1.297-1.419-2.295-.154-.51-.216-.92-.186-1.232zM152.462 87.022l.333-3.503c.048-.43.245-.731.59-.901.423-.194.905-.074 1.447.358l-.16 1.684c-.202-.164-.351-.165-.449-.005-.025.037-.041.077-.045.122l-.063.668 1.55 1.264.063-.655c.024-.335-.141-.647-.494-.935l.16-1.685c.506.413.929.998 1.269 1.755.295.663.422 1.256.38 1.779l-.241 2.527-2.852-2.325-.094.989c.024.298.163.565.418.801l-.157 1.644c-.652-.531-1.137-1.296-1.453-2.293-.166-.53-.234-.96-.202-1.29zm2.207 4.032l.155-1.63c.375.296.636.263.783-.097l1.082 1.473c-.158.485-.465.73-.922.732-.351-.008-.717-.167-1.098-.478zM159.748 95.195l.626-6.577.083.067 1.112 3.99-.354 3.716-1.467-1.196zm.773-8.128l.118-1.23 1.197.976 2.757 9.912-.214 2.246-.697-.569-3.161-11.335zm3.025 4.05l.257-2.7 1.467 1.196-.529 5.56-.083-.067-1.112-3.99zM165.409 97.577l.332-3.489c.042-.436.232-.743.57-.918.423-.203.923-.074 1.5.387l-.166 1.738c-.315-.22-.498-.186-.547.1l-.297 3.115c-.019.359.13.673.449.942l-.166 1.738c-.68-.554-1.174-1.336-1.481-2.346-.16-.524-.224-.946-.194-1.267zm2.154 4.003l.166-1.738c.295.193.471.154.527-.117l.288-3.15c-.018-.36-.161-.66-.43-.899l.165-1.737c.653.531 1.13 1.286 1.434 2.263.159.524.223.95.192 1.28l-.332 3.489c-.043.446-.234.761-.573.945-.409.214-.888.102-1.437-.336zM170.478 97.59l.164-1.725.729.594.185-1.952 1.395 1.137-.186 1.952.687.56-.165 1.737-.687-.56-.337 3.543c-.017.332.096.602.338.809l.301.246.137 2.099-.624-.509c-.909-.741-1.423-1.635-1.54-2.681-.039-.378-.037-.789.006-1.235l.325-3.422-.728-.594z"/>
    </g>
    <g opacity=".85">
        <path fill="#fff" d="M112.562 97.585l.743-10.702 4.419 3.418-.149 2.144-2.707-2.094-.151 2.174 1.566 1.211-.15 2.159-1.566-1.212-.293 4.226-1.712-1.324zM117.921 99.246l.278-3.996c.035-.5.243-.855.624-1.066.477-.244 1.052-.11 1.725.398l-.139 1.99c-.367-.24-.574-.196-.623.132l-.247 3.567c-.012.411.168.765.54 1.063l-.138 1.991c-.793-.614-1.38-1.493-1.762-2.637-.197-.594-.283-1.075-.258-1.442zm2.578 4.51l.138-1.99c.344.212.543.162.599-.15l.238-3.607c-.031-.411-.204-.75-.518-1.014l.138-1.99c.761.589 1.328 1.436 1.704 2.544.197.594.283 1.08.257 1.457l-.278 3.996c-.035.51-.244.876-.626 1.097-.461.256-1.012.142-1.652-.343zM123.695 103.777l.446-6.415 1.651 1.277-.429 6.17c-.01.4.162.743.517 1.029l-.141 2.036c-.793-.613-1.385-1.485-1.775-2.615-.206-.6-.295-1.094-.269-1.482zm2.602 4.529l.142-2.036c.351.218.555.166.612-.156l.428-6.17 1.651 1.277-.445 6.415c-.034.48-.245.827-.635 1.041-.496.262-1.08.138-1.753-.371zM129.447 110.661l.441-6.353c.035-.511.252-.87.65-1.078.486-.238 1.061-.105 1.725.398l-.141 2.036c-.344-.211-.544-.156-.6.166l-.424 6.108-1.651-1.277zm3.233-4.565l.141-2.036c.786.607 1.377 1.479 1.776 2.616.213.616.306 1.113.28 1.491l-.441 6.353-1.651-1.277.424-6.108c.024-.337-.113-.647-.409-.929-.039-.042-.079-.078-.12-.11zM135.426 112.786l.277-3.981c.041-.473.24-.825.597-1.054.445-.269.968-.177 1.567.276l.401.31-.137 1.975-.401-.31c-.237-.151-.388-.117-.455.1l-.268 3.874c-.008.112.041.263.147.453.077.124.168.226.273.308l.376.291-.138 1.99-.376-.291c-.737-.57-1.283-1.428-1.638-2.574-.174-.564-.249-1.02-.225-1.367zm2.883 4.73l.761-10.962 1.687 1.305-.773 10.952-1.675-1.295zM144.041 119.691c.032-.459.214-.679.545-.659.144.014.293.081.447.2.364.282.617.687.759 1.217.061.23.084.447.07.651-.032.469-.218.681-.555.635-.136-.009-.281-.072-.435-.191-.372-.288-.625-.699-.759-1.232-.06-.23-.084-.437-.072-.621zm.309-4.439c.032-.46.213-.68.544-.66.144.015.293.081.447.2.364.282.617.687.76 1.217.06.23.084.447.07.651-.033.469-.218.681-.556.635-.144-.015-.289-.078-.435-.191-.372-.288-.625-.699-.758-1.232-.061-.23-.085-.437-.072-.62zM147.007 121.195c-.068.98.05 1.856.355 2.629.283.714.744 1.501 1.383 2.361l.094-1.347c-.337-.551-.53-1.152-.578-1.802-.021-.318-.018-.675.01-1.073l.339-4.884c.067-.841.291-1.297.671-1.369.069-.011.133-.015.192-.012l.081-1.341c-.779-.205-1.323-.164-1.633.124-.32.301-.511.901-.573 1.799l-.341 4.915z"/>
    </g>
    <defs>
        <linearGradient id="paint0_linear" x1="120" x2="120" y1="25.884" y2="229.885" gradientUnits="userSpaceOnUse">
            <stop stop-color="#fff" stop-opacity="0"/>
            <stop offset="1" stop-color="#E0E2E3"/>
        </linearGradient>
        <linearGradient id="paint1_linear" x1="120" x2="120" y1="25.884" y2="229.885" gradientUnits="userSpaceOnUse">
            <stop stop-color="#F9F9F9"/>
            <stop offset="1" stop-color="#DEE0E2"/>
        </linearGradient>
    </defs>
</svg>
